<svg xmlns="http://www.w3.org/2000/svg" xmlns:xlink="http://www.w3.org/1999/xlink" width="2000" zoomAndPan="magnify" viewBox="0 0 1500 1499.999933" height="2000" preserveAspectRatio="xMidYMid meet" version="1.0"><defs><g/><clipPath id="d47b0720a8"><rect x="0" width="670" y="0" height="416"/></clipPath><clipPath id="364065a351"><rect x="0" width="390" y="0" height="323"/></clipPath></defs><g transform="matrix(1, 0, 0, 1, 653, 500)"><g clip-path="url(#d47b0720a8)"><g fill="#1b1b1b" fill-opacity="1"><g transform="translate(0.966695, 337.146753)"><g><path d="M 105.015625 2.546875 C 92.554688 2.546875 82.929688 -0.28125 76.140625 -5.9375 C 69.347656 -11.601562 64.347656 -17.644531 61.140625 -24.0625 L 58.875 -24.0625 L 58.875 0 L 14.4375 0 L 14.4375 -212.5625 L 58.875 -212.5625 L 58.875 -127.65625 L 61.140625 -127.65625 C 63.773438 -133.3125 68.535156 -138.921875 75.421875 -144.484375 C 82.316406 -150.054688 92.085938 -152.84375 104.734375 -152.84375 C 123.410156 -152.84375 137.796875 -145.859375 147.890625 -131.890625 C 157.984375 -117.929688 163.03125 -98.96875 163.03125 -75 C 163.03125 -51.414062 157.984375 -32.59375 147.890625 -18.53125 C 137.796875 -4.476562 123.503906 2.546875 105.015625 2.546875 Z M 88.59375 -32.265625 C 98.78125 -32.265625 106.28125 -36.507812 111.09375 -45 C 115.90625 -53.488281 118.3125 -63.488281 118.3125 -75 C 118.3125 -86.507812 115.90625 -96.367188 111.09375 -104.578125 C 106.28125 -112.785156 98.78125 -116.890625 88.59375 -116.890625 C 78.40625 -116.890625 70.90625 -112.738281 66.09375 -104.4375 C 61.28125 -96.132812 58.875 -86.320312 58.875 -75 C 58.875 -63.488281 61.328125 -53.488281 66.234375 -45 C 71.140625 -36.507812 78.59375 -32.265625 88.59375 -32.265625 Z M 88.59375 -32.265625 "/></g></g></g><g fill="#1b1b1b" fill-opacity="1"><g transform="translate(151.551337, 337.146753)"><g><path d="M 16.140625 -149.734375 L 60 -149.734375 L 60 -125.953125 L 62.265625 -125.953125 C 64.535156 -132.554688 69.019531 -138.171875 75.71875 -142.796875 C 82.414062 -147.421875 91.140625 -149.734375 101.890625 -149.734375 C 105.097656 -149.734375 108.117188 -149.445312 110.953125 -148.875 L 108.96875 -108.40625 C 104.632812 -109.914062 99.632812 -110.671875 93.96875 -110.671875 C 82.082031 -110.671875 73.445312 -107.648438 68.0625 -101.609375 C 62.6875 -95.578125 60 -85.578125 60 -71.609375 L 60 0 L 16.140625 0 Z M 16.140625 -149.734375 "/></g></g></g><g fill="#1b1b1b" fill-opacity="1"><g transform="translate(241.279368, 337.146753)"><g><path d="M 82.359375 2.546875 C 66.515625 2.546875 53.164062 -1.082031 42.3125 -8.34375 C 31.46875 -15.613281 23.445312 -25.144531 18.25 -36.9375 C 13.0625 -48.726562 10.46875 -61.414062 10.46875 -75 C 10.46875 -88.59375 13.0625 -101.285156 18.25 -113.078125 C 23.445312 -124.867188 31.46875 -134.441406 42.3125 -141.796875 C 53.164062 -149.160156 66.707031 -152.84375 82.9375 -152.84375 C 104.070312 -152.84375 120.863281 -146.191406 133.3125 -132.890625 C 145.769531 -119.585938 152 -100.289062 152 -75 L 152 -62.84375 L 52.9375 -62.84375 L 52.9375 -60.578125 C 52.9375 -52.835938 55.625 -46.179688 61 -40.609375 C 66.375 -35.046875 73.210938 -32.265625 81.515625 -32.265625 C 87.929688 -32.265625 93.40625 -33.726562 97.9375 -36.65625 C 102.46875 -39.582031 105.675781 -43.5 107.5625 -48.40625 L 150.859375 -48.40625 C 147.085938 -33.5 139.304688 -21.28125 127.515625 -11.75 C 115.722656 -2.21875 100.671875 2.546875 82.359375 2.546875 Z M 109.828125 -91.140625 C 109.640625 -101.328125 107.039062 -108.875 102.03125 -113.78125 C 97.03125 -118.6875 90.378906 -121.140625 82.078125 -121.140625 C 73.585938 -121.140625 66.84375 -118.5 61.84375 -113.21875 C 56.84375 -107.9375 54.25 -100.578125 54.0625 -91.140625 Z M 109.828125 -91.140625 "/></g></g></g><g fill="#1b1b1b" fill-opacity="1"><g transform="translate(378.843496, 337.146753)"><g><path d="M 4.53125 -149.734375 L 45.28125 -149.734375 L 68.21875 -47.546875 L 69.90625 -47.546875 L 97.375 -149.734375 L 136.140625 -149.734375 L 164.453125 -47.546875 L 166.15625 -47.546875 L 188.21875 -149.734375 L 228.984375 -149.734375 L 191.625 0 L 138.96875 0 L 118.3125 -83.5 L 116.046875 -83.5 L 95.390625 0 L 42.453125 0 Z M 4.53125 -149.734375 "/></g></g></g><g fill="#1b1b1b" fill-opacity="1"><g transform="translate(589.435515, 337.146753)"><g><path d="M 47.546875 2.546875 C 40.566406 2.546875 34.8125 0.1875 30.28125 -4.53125 C 25.757812 -9.25 23.5 -15.003906 23.5 -21.796875 C 23.5 -28.585938 25.757812 -34.296875 30.28125 -38.921875 C 34.8125 -43.546875 40.566406 -45.859375 47.546875 -45.859375 C 54.535156 -45.859375 60.335938 -43.546875 64.953125 -38.921875 C 69.578125 -34.296875 71.890625 -28.585938 71.890625 -21.796875 C 71.890625 -15.003906 69.53125 -9.25 64.8125 -4.53125 C 60.09375 0.1875 54.335938 2.546875 47.546875 2.546875 Z M 47.546875 2.546875 "/></g></g></g></g></g><g transform="matrix(1, 0, 0, 1, 222, 606)"><g clip-path="url(#364065a351)"><g fill="#1b1b1b" fill-opacity="1"><g transform="translate(3.443422, 230.454543)"><g><path d="M 153.96875 -210.75 C 145.84375 -210.75 139.265625 -209.625 134.234375 -207.375 C 129.210938 -205.125 124.882812 -201.003906 121.25 -195.015625 C 117.613281 -189.035156 114.085938 -180.164062 110.671875 -168.40625 L 84.046875 -75.703125 C 81.898438 -68.429688 80.828125 -61.160156 80.828125 -53.890625 C 80.828125 -40.203125 85.101562 -29.507812 93.65625 -21.8125 C 102.21875 -14.113281 113.984375 -10.265625 128.953125 -10.265625 C 144.554688 -10.265625 158.453125 -15.554688 170.640625 -26.140625 C 182.835938 -36.722656 191.925781 -52.492188 197.90625 -73.453125 L 226.78125 -172.890625 C 227 -173.742188 227.800781 -176.523438 229.1875 -181.234375 C 230.570312 -185.941406 231.265625 -190.328125 231.265625 -194.390625 C 231.265625 -201.234375 228.859375 -205.722656 224.046875 -207.859375 C 219.242188 -209.992188 212.882812 -211.0625 204.96875 -211.0625 L 206.890625 -216.515625 L 274.25 -216.515625 L 272.328125 -210.75 C 262.921875 -209.882812 255.648438 -206.296875 250.515625 -199.984375 C 245.378906 -193.679688 240.890625 -184.007812 237.046875 -170.96875 L 209.140625 -73.78125 C 202.722656 -51.113281 193.421875 -33.953125 181.234375 -22.296875 C 169.046875 -10.640625 157.5 -3.207031 146.59375 0 C 135.6875 3.207031 126.382812 4.8125 118.6875 4.8125 C 104.144531 4.8125 91.6875 1.660156 81.3125 -4.640625 C 70.9375 -10.953125 63.179688 -19.023438 58.046875 -28.859375 C 52.921875 -38.703125 50.359375 -48.863281 50.359375 -59.34375 C 50.359375 -64.6875 50.734375 -69.335938 51.484375 -73.296875 C 52.234375 -77.253906 53.570312 -82.65625 55.5 -89.5 L 80.1875 -176.09375 C 82.539062 -184.007812 83.71875 -190.210938 83.71875 -194.703125 C 83.71875 -200.472656 81.898438 -204.585938 78.265625 -207.046875 C 74.628906 -209.515625 68.859375 -210.75 60.953125 -210.75 L 55.8125 -210.75 L 57.734375 -216.515625 L 155.890625 -216.515625 Z M 153.96875 -210.75 "/></g></g></g><g fill="#1b1b1b" fill-opacity="1"><g transform="translate(228.292127, 230.454543)"><g><path d="M 81.15625 -210.75 C 85.644531 -210.75 89.492188 -209.144531 92.703125 -205.9375 C 95.910156 -202.726562 97.515625 -198.984375 97.515625 -194.703125 C 97.515625 -190.210938 95.910156 -186.363281 92.703125 -183.15625 C 89.492188 -179.945312 85.644531 -178.34375 81.15625 -178.34375 C 76.664062 -178.34375 72.867188 -179.945312 69.765625 -183.15625 C 66.660156 -186.363281 65.109375 -190.210938 65.109375 -194.703125 C 65.109375 -198.984375 66.660156 -202.726562 69.765625 -205.9375 C 72.867188 -209.144531 76.664062 -210.75 81.15625 -210.75 Z M 47.46875 -17.328125 C 43.195312 -1.710938 38.597656 11.921875 33.671875 23.578125 C 28.753906 35.234375 21.429688 45.65625 11.703125 54.84375 C 1.972656 64.039062 -10.265625 68.640625 -25.015625 68.640625 C -31.429688 68.640625 -36.457031 67.140625 -40.09375 64.140625 C -43.726562 61.148438 -45.546875 57.519531 -45.546875 53.25 C -45.546875 49.394531 -44.257812 46.289062 -41.6875 43.9375 C -39.125 41.59375 -36.023438 40.421875 -32.390625 40.421875 C -29.617188 40.421875 -27.21875 41.113281 -25.1875 42.5 C -23.15625 43.894531 -22.140625 45.875 -22.140625 48.4375 C -22.140625 50.363281 -23.207031 52.394531 -25.34375 54.53125 C -27.476562 56.664062 -28.546875 58.054688 -28.546875 58.703125 C -28.546875 59.335938 -28.0625 59.976562 -27.09375 60.625 C -26.132812 61.269531 -24.800781 61.59375 -23.09375 61.59375 C -18.601562 61.59375 -14.539062 60.894531 -10.90625 59.5 C -7.269531 58.113281 -4.382812 56.03125 -2.25 53.25 C 1.8125 48.757812 5.5 41.753906 8.8125 32.234375 C 12.132812 22.722656 16.144531 9.410156 20.84375 -7.703125 L 25.015625 -22.140625 L 49.71875 -107.78125 C 51.851562 -115.90625 52.921875 -121.359375 52.921875 -124.140625 C 52.921875 -130.765625 49.609375 -134.078125 42.984375 -134.078125 C 39.773438 -134.078125 34.960938 -133.4375 28.546875 -132.15625 L 28.546875 -137.921875 L 78.59375 -146.59375 L 84.359375 -146.59375 Z M 47.46875 -17.328125 "/></g></g></g><g fill="#1b1b1b" fill-opacity="1"><g transform="translate(292.761903, 230.454543)"><g><path d="M 76.34375 -210.75 C 80.832031 -210.75 84.679688 -209.144531 87.890625 -205.9375 C 91.097656 -202.726562 92.703125 -198.984375 92.703125 -194.703125 C 92.703125 -190.210938 91.097656 -186.363281 87.890625 -183.15625 C 84.679688 -179.945312 80.832031 -178.34375 76.34375 -178.34375 C 72.0625 -178.34375 68.316406 -179.945312 65.109375 -183.15625 C 61.898438 -186.363281 60.296875 -190.210938 60.296875 -194.703125 C 60.296875 -198.984375 61.898438 -202.726562 65.109375 -205.9375 C 68.316406 -209.144531 72.0625 -210.75 76.34375 -210.75 Z M 44.90625 -28.546875 C 43.195312 -22.984375 42.34375 -19.132812 42.34375 -17 C 42.34375 -13.582031 44.160156 -11.875 47.796875 -11.875 C 50.359375 -11.875 53.9375 -13.847656 58.53125 -17.796875 C 63.132812 -21.753906 67.894531 -27.582031 72.8125 -35.28125 L 77.953125 -32.078125 C 70.890625 -21.171875 62.972656 -12.457031 54.203125 -5.9375 C 45.441406 0.582031 37.425781 3.84375 30.15625 3.84375 C 25.875 3.84375 22.609375 2.457031 20.359375 -0.3125 C 18.117188 -3.09375 17 -6.835938 17 -11.546875 C 17 -14.972656 17.640625 -18.929688 18.921875 -23.421875 L 44.59375 -111.625 C 46.082031 -116.96875 46.828125 -120.710938 46.828125 -122.859375 C 46.828125 -125.628906 45.863281 -128.082031 43.9375 -130.21875 C 42.019531 -132.363281 39.132812 -133.4375 35.28125 -133.4375 C 33.78125 -133.4375 29.71875 -132.898438 23.09375 -131.828125 L 24.703125 -137.28125 L 73.453125 -146.59375 L 78.90625 -146.59375 Z M 44.90625 -28.546875 "/></g></g></g></g></g></svg>